<svg width="50" height="50" viewBox="0 0 50 50" fill="none" xmlns="http://www.w3.org/2000/svg">
<g clip-path="url(#clip0_91_83)">
<path d="M34.375 0H15.625C11.481 0 7.50671 1.6462 4.57646 4.57646C1.6462 7.50671 0 11.481 0 15.625L0 23.9583C0 28.1023 1.6462 32.0766 4.57646 35.0069C7.50671 37.9371 11.481 39.5833 15.625 39.5833H18.75V48.9583C18.7488 49.1652 18.8092 49.3678 18.9236 49.5402C19.038 49.7126 19.2011 49.8471 19.3922 49.9264C19.5833 50.0058 19.7937 50.0264 19.9965 49.9857C20.1994 49.945 20.3855 49.8448 20.5312 49.6979L30.6354 39.5833H34.375C38.519 39.5833 42.4933 37.9371 45.4235 35.0069C48.3538 32.0766 50 28.1023 50 23.9583V15.625C50 11.481 48.3538 7.50671 45.4235 4.57646C42.4933 1.6462 38.519 0 34.375 0ZM47.9167 23.9583C47.9167 27.5498 46.49 30.9942 43.9504 33.5337C41.4108 36.0733 37.9665 37.5 34.375 37.5H30.2083C30.0712 37.4992 29.9353 37.5255 29.8084 37.5773C29.6815 37.6292 29.5661 37.7055 29.4687 37.8021L20.8333 46.4479V38.5417C20.8333 38.2654 20.7236 38.0004 20.5282 37.8051C20.3329 37.6097 20.0679 37.5 19.7917 37.5H15.625C12.0335 37.5 8.58915 36.0733 6.0496 33.5337C3.51004 30.9942 2.08333 27.5498 2.08333 23.9583V15.625C2.08333 12.0335 3.51004 8.58915 6.0496 6.0496C8.58915 3.51004 12.0335 2.08333 15.625 2.08333H34.375C37.9665 2.08333 41.4108 3.51004 43.9504 6.0496C46.49 8.58915 47.9167 12.0335 47.9167 15.625V23.9583Z" fill="black"/>
<path d="M27.0833 11.4583H12.5V13.5417H27.0833V11.4583Z" fill="black"/>
<path d="M37.5 18.75H12.5V20.8333H37.5V18.75Z" fill="black"/>
<path d="M37.5 26.0417H12.5V28.125H37.5V26.0417Z" fill="black"/>
<path d="M31.2498 11.4583H29.1665V13.5417H31.2498V11.4583Z" fill="black"/>
</g>
<defs>
<clipPath id="clip0_91_83">
<rect width="50" height="50" fill="white"/>
</clipPath>
</defs>
</svg>
