<svg width="50" height="50" viewBox="0 0 50 50" fill="none" xmlns="http://www.w3.org/2000/svg">
<path fill-rule="evenodd" clip-rule="evenodd" d="M50 47.9167H8.33333C3.73333 47.9167 0 44.1833 0 39.5833V6.88749C0.652083 4.65624 2.67708 2.08333 6.25 2.08333C10.1146 2.08333 12.0187 4.87916 12.4896 6.89999L12.5 10.4167H50V47.9167ZM47.9167 12.5H12.5V39.5833C12.5 39.5833 11.1146 37.5 8.33333 37.5C6.03333 37.5 4.16667 39.3667 4.16667 41.6667C4.16667 43.9667 6.03333 45.8333 8.33333 45.8333H47.9167V12.5ZM10.4167 6.91666C9.52708 4.89374 7.65208 4.15624 6.25 4.16666C4.87292 4.17708 2.98333 4.79166 2.08333 6.91666V40.6208C2.90417 36.4687 6.76042 34.6187 10.4167 35.6187V6.91666ZM41.6667 39.5833H16.6667V18.75H41.6667V39.5833ZM25 20.8333H18.75V37.5H39.5833V29.1667H35.4167V35.4167H33.3333V29.1667H27.0833V35.4167H25V20.8333ZM39.5833 20.8333H27.0833V27.0833H39.5833V20.8333Z" fill="black"/>
</svg>
