<svg width="52" height="78" viewBox="0 0 52 78" fill="none" xmlns="http://www.w3.org/2000/svg">
<path d="M26 6.5C36.7542 6.5 45.5 15.2458 45.5 26V52C45.5 62.7542 36.7542 71.5 26 71.5C15.2458 71.5 6.5 62.7542 6.5 52V26C6.5 15.2458 15.2458 6.5 26 6.5ZM26 0C11.6415 0 0 11.6415 0 26V52C0 66.3585 11.6415 78 26 78C40.3585 78 52 66.3585 52 52V26C52 11.6415 40.3585 0 26 0ZM26 29.25C23.3057 29.25 21.125 27.066 21.125 24.375C21.125 21.684 23.3057 19.5 26 19.5C28.6943 19.5 30.875 21.684 30.875 24.375C30.875 27.066 28.6943 29.25 26 29.25Z" fill="black"/>
</svg>
