<svg width="50" height="50" viewBox="0 0 50 50" fill="none" xmlns="http://www.w3.org/2000/svg">
<path fill-rule="evenodd" clip-rule="evenodd" d="M4.1665 19.6937V0H23.6498L45.8332 22.1354L37.929 30.0396L41.7811 39.9L16.0728 50L4.1665 19.6937ZM7.83525 23.3354L17.2498 47.3L39.0832 38.7208L36.3207 31.6479L26.3019 41.6667L7.83525 23.3354ZM6.24984 2.08333V18.825L26.2957 38.725L42.8853 22.1375L22.7873 2.08333H6.24984ZM31.7707 19.3604C30.9061 18.4958 29.9686 18.075 28.8998 18.075C27.6957 18.075 26.3436 18.5771 24.3769 19.7479C22.9561 20.6042 22.0478 20.9667 21.3436 20.9667C20.5915 20.9667 19.0873 20.1146 19.3415 18.4271C19.4498 17.7083 19.8623 16.9771 20.5332 16.3042C21.8915 14.9458 23.7498 14.5375 25.2748 16.0812L26.8248 14.5312C25.8332 13.5417 24.5415 12.8812 23.1561 12.8812C21.9769 12.8812 20.8123 13.3562 19.6915 14.2917L18.3873 12.9875L16.9332 14.4437L18.2936 15.8021C17.1082 17.5229 16.5394 20.0125 18.4519 21.9208C20.5582 24.0271 23.0103 23.0479 25.5623 21.4375C26.8123 20.6479 27.8186 20.2646 28.6353 20.2646C29.8623 20.2667 31.0936 21.3021 30.8811 22.8854C30.7728 23.6896 30.3394 24.4771 29.5873 25.2229C28.6478 26.1625 27.704 26.6375 26.7811 26.6375C25.9103 26.6375 25.2248 26.2375 24.5957 25.675L23.0561 27.2146C24.0207 28.1687 25.3103 28.7833 26.6707 28.7833C27.804 28.7833 28.9353 28.3646 30.029 27.5396L31.154 28.6604L32.6061 27.2083L31.5228 26.1229C33.0707 24.2562 33.9332 21.5208 31.7707 19.3583V19.3604ZM12.4998 4.16875C14.7998 4.16875 16.6665 6.03542 16.6665 8.33542C16.6665 10.6354 14.7998 12.5021 12.4998 12.5021C10.1998 12.5021 8.33317 10.6354 8.33317 8.33542C8.33317 6.03542 10.1998 4.16875 12.4998 4.16875ZM12.4998 6.25208C13.6498 6.25208 14.5832 7.18542 14.5832 8.33542C14.5832 9.48542 13.6498 10.4187 12.4998 10.4187C11.3498 10.4187 10.4165 9.48542 10.4165 8.33542C10.4165 7.18542 11.3498 6.25208 12.4998 6.25208Z" fill="black"/>
</svg>
