<svg width="50" height="50" viewBox="0 0 50 50" fill="none" xmlns="http://www.w3.org/2000/svg">
<g clip-path="url(#clip0_91_77)">
<path fill-rule="evenodd" clip-rule="evenodd" d="M14 42.6917C17.1917 44.6833 20.9625 45.8333 25 45.8333C29.0292 45.8333 32.7938 44.6875 35.9833 42.7021L38.5667 45.9979C34.6583 48.5292 30 50 25 50C19.9938 50 15.3292 48.525 11.4167 45.9875L14 42.6917ZM2.92292 39.9208H0C0 37.6208 1.86458 35.7542 4.16667 35.7542H8.33333C9.4375 35.7542 10.4979 36.1937 11.2792 36.975C12.0604 37.7562 12.5 38.8167 12.5 39.9208H9.57708C9.16875 38.6583 8.00417 38.4083 6.25 38.4083C4.49583 38.4083 3.33333 38.6479 2.92292 39.9208ZM40.4229 39.5833H37.5C37.5 37.2813 39.3646 35.4167 41.6667 35.4167H45.8333C46.9375 35.4167 47.9979 35.8563 48.7792 36.6375C49.5604 37.4188 50 38.4771 50 39.5833H47.0771C46.6687 38.3208 45.5042 38.0708 43.75 38.0708C41.9958 38.0708 40.8333 38.3104 40.4229 39.5833ZM6.25 25.3375C8.8375 25.3375 10.9375 27.4375 10.9375 30.025C10.9375 32.6125 8.8375 34.7125 6.25 34.7125C3.6625 34.7125 1.5625 32.6125 1.5625 30.025C1.5625 27.4375 3.6625 25.3375 6.25 25.3375ZM43.75 25C46.3375 25 48.4375 27.1 48.4375 29.6875C48.4375 32.275 46.3375 34.375 43.75 34.375C41.1625 34.375 39.0625 32.275 39.0625 29.6875C39.0625 27.1 41.1625 25 43.75 25ZM6.25 28.15C7.28542 28.15 8.125 28.9896 8.125 30.025C8.125 31.0604 7.28542 31.9 6.25 31.9C5.21458 31.9 4.375 31.0604 4.375 30.025C4.375 28.9896 5.21458 28.15 6.25 28.15ZM43.75 27.8125C44.7854 27.8125 45.625 28.6521 45.625 29.6875C45.625 30.7229 44.7854 31.5625 43.75 31.5625C42.7146 31.5625 41.875 30.7229 41.875 29.6875C41.875 28.6521 42.7146 27.8125 43.75 27.8125ZM16.6667 1.425V5.90208C10.5458 8.57917 5.95625 14.1146 4.5875 20.8146L0.35 20.8083C1.875 11.7917 8.23542 4.40833 16.6667 1.425ZM33.3333 1.425C41.7646 4.40833 48.125 11.7917 49.65 20.8083L45.4125 20.8146C44.0438 14.1146 39.4542 8.57917 33.3333 5.90208V1.425ZM21.6729 14.5833H18.75C18.75 12.2813 20.6146 10.4167 22.9167 10.4167H27.0833C28.1875 10.4167 29.2479 10.8562 30.0292 11.6375C30.8104 12.4187 31.25 13.4771 31.25 14.5833H28.3271C27.9188 13.3208 26.7542 13.0708 25 13.0708C23.2458 13.0708 22.0833 13.3104 21.6729 14.5833ZM25 0C27.5875 0 29.6875 2.1 29.6875 4.6875C29.6875 7.275 27.5875 9.375 25 9.375C22.4125 9.375 20.3125 7.275 20.3125 4.6875C20.3125 2.1 22.4125 0 25 0ZM25 2.8125C26.0354 2.8125 26.875 3.65208 26.875 4.6875C26.875 5.72292 26.0354 6.5625 25 6.5625C23.9646 6.5625 23.125 5.72292 23.125 4.6875C23.125 3.65208 23.9646 2.8125 25 2.8125Z" fill="black"/>
</g>
<defs>
<clipPath id="clip0_91_77">
<rect width="50" height="50" fill="white"/>
</clipPath>
</defs>
</svg>
